<?xml version="1.0" encoding="utf-8"?>
<!-- Generator: Adobe Illustrator 22.1.0, SVG Export Plug-In . SVG Version: 6.00 Build 0)  -->
<svg version="1.1"
	 id="Calque_1" xmlns:cc="http://creativecommons.org/ns#" xmlns:dc="http://purl.org/dc/elements/1.1/" xmlns:inkscape="http://www.inkscape.org/namespaces/inkscape" xmlns:rdf="http://www.w3.org/1999/02/22-rdf-syntax-ns#" xmlns:sodipodi="http://sodipodi.sourceforge.net/DTD/sodipodi-0.dtd" xmlns:svg="http://www.w3.org/2000/svg"
	 xmlns="http://www.w3.org/2000/svg" xmlns:xlink="http://www.w3.org/1999/xlink" x="0px" y="0px" viewBox="0 0 100 100"
	 style="enable-background:new 0 0 100 100;" xml:space="preserve" fill="#9b9b9b">
<g transform="translate(0,-952.36218)">
	<path d="M58.1,965.9c-0.7,0.1-1.3,0.4-1.8,0.9l-48.1,48.1c-0.5,0.5-0.8,1.1-0.8,1.8L6,1029.3c-0.2,1.6,1,3.1,2.7,3.3
		c0.2,0,0.4,0,0.7,0l12.7-1.4c0.7-0.1,1.3-0.4,1.8-0.9L72,982.2c1.2-1.2,1.2-3.1,0-4.2l0,0l-11.3-11.3
		C60,966.1,59.1,965.8,58.1,965.9z M58.5,973.1l7.1,7.1l-45.2,45.2l-7.9,0.9l0.9-8L58.5,973.1L58.5,973.1z M35,1026.7
		c-1.7,0-3,1.3-3,3s1.3,3,3,3h56c1.7,0,3-1.3,3-3s-1.3-3-3-3H35z"/>
</g>
</svg>
