<?xml version="1.0" encoding="utf-8"?>
<!-- Generator: Adobe Illustrator 22.1.0, SVG Export Plug-In . SVG Version: 6.00 Build 0)  -->
<svg version="1.1" id="Calque_1" xmlns="http://www.w3.org/2000/svg" xmlns:xlink="http://www.w3.org/1999/xlink" x="0px" y="0px"
	 viewBox="0 0 100 100" style="enable-background:new 0 0 100 100;" xml:space="preserve" fill="#9b9b9b">
<title>123all</title>
<path d="M89.2,30.8h-6.9V14.5c0-0.8-0.7-1.5-2.5-1.5h-66c0.2,0-0.5,0.7-0.5,1.5v46.9H9.7V17.9c0-4.7,3.8-8.5,8.5-8.5h59.3
	c4.7,0,8.5,3.8,8.5,8.5v12.4h3V17.9c0-6.3-5.2-11.5-11.5-11.5H18.2c-6.4,0-11.5,5.2-11.5,11.5v43.5H3.8c-0.8,0-1.5,0.7-1.5,1.5
	c0,5.7,4.6,10.3,10.3,10.3H58v11.7c0,4.7,3.8,8.5,8.5,8.5h22.7c4.7,0,8.5-3.8,8.5-8.5V39.3C97.7,34.6,93.9,30.8,89.2,30.8z
	 M12.6,70.2c-3.5,0-6.4-2.4-7.2-5.8H58v5.8H12.6z M58,39.3v22.1H16.3V16h63.1v14.8h-13C61.8,30.8,58,34.6,58,39.3z M94.7,84.9
	c0,3-2.5,5.5-5.5,5.5H66.4c-3,0-5.4-2.5-5.4-5.5V39.3c0-3,2.5-5.5,5.5-5.5h22.7c3,0,5.5,2.5,5.5,5.5V84.9z"/>
<path d="M90.3,36.7H65.4c-0.8,0-1.5,0.7-1.5,1.5v43.7c0,0.8,0.7,1.5,1.5,1.5h24.8c0.8,0,1.5-0.7,1.5-1.5V38.2
	C91.8,37.4,91.1,36.7,90.3,36.7z M88.8,80.5H66.9V39.7h21.8v40.8H88.8z"/>
</svg>
