<?xml version="1.0" encoding="utf-8"?>
<!-- Generator: Adobe Illustrator 22.1.0, SVG Export Plug-In . SVG Version: 6.00 Build 0)  -->
<svg version="1.1"
	 id="Calque_1" xmlns:cc="http://creativecommons.org/ns#" xmlns:dc="http://purl.org/dc/elements/1.1/" xmlns:inkscape="http://www.inkscape.org/namespaces/inkscape" xmlns:rdf="http://www.w3.org/1999/02/22-rdf-syntax-ns#" xmlns:sodipodi="http://sodipodi.sourceforge.net/DTD/sodipodi-0.dtd" xmlns:svg="http://www.w3.org/2000/svg"
	 xmlns="http://www.w3.org/2000/svg" xmlns:xlink="http://www.w3.org/1999/xlink" x="0px" y="0px" viewBox="0 0 100 100"
	 style="enable-background:new 0 0 100 100;" xml:space="preserve" fill="#9b9b9b">
<g transform="translate(0,-952.36218)">
	<path d="M65,968.4c-0.7,0-1.3,0.3-1.6,0.8c-0.1,0.2-7.9,16.7-15.6,33.2c-7.2,15.5-14.4,30.9-14.5,31c-0.2,0.3-0.2,0.6-0.2,1
		c0,1.1,0.9,2,2,2c0.7,0,1.3-0.3,1.6-0.8c0.1-0.2,7.9-16.7,15.6-33.2c7.2-15.5,14.4-30.9,14.5-31c0.2-0.3,0.2-0.6,0.2-1
		C67,969.3,66.1,968.4,65,968.4z M27.8,978.3c-0.5,0-1,0.3-1.3,0.7c0,0-19.8,21.7-20.1,22.1c-0.3,0.3-0.4,0.8-0.4,1.2
		c0,0.4,0.1,0.9,0.4,1.2c0.4,0.5,20.2,22.2,20.2,22.2c0.7,0.9,2.1,1,2.9,0.3s0.8-2.2,0-3l-18.8-20.7l18.8-20.7
		c0.6-0.6,0.7-1.5,0.4-2.2S28.6,978.3,27.8,978.3z M72.1,978.3c-0.8-0.1-1.6,0.4-2,1.2s-0.2,1.6,0.4,2.2l18.8,20.7L70.5,1023
		c-0.8,0.7-0.8,2.2,0,3s2.3,0.6,2.9-0.3c0,0,19.8-21.7,20.2-22.2c0.2-0.3,0.4-0.7,0.4-1.2c0-0.5-0.1-0.9-0.4-1.2
		c-0.4-0.5-20.1-22.1-20.1-22.1C73.1,978.6,72.6,978.4,72.1,978.3z"/>
</g>
</svg>
